<?xml version="1.0" ?><!DOCTYPE svg  PUBLIC '-//W3C//DTD SVG 1.1//EN'  'http://www.w3.org/Graphics/SVG/1.1/DTD/svg11.dtd'><svg viewBox="0 0 512 512" xmlns="http://www.w3.org/2000/svg" xmlns:xlink="http://www.w3.org/1999/xlink"><style>:root>svg{display:none}:root>svg:target{display:block}</style><svg style="enable-background:new 0 0 512 512" xml:space="preserve" viewBox="0 0 512 512" id="arrow" xmlns="http://www.w3.org/2000/svg"><path d="m322.7 128.4 100.3 105c6 5.8 9 13.7 9 22.4s-3 16.5-9 22.4L322.7 383.6c-11.9 12.5-31.3 12.5-43.2 0-11.9-12.5-11.9-32.7 0-45.2l48.2-50.4h-217c-17 0-30.7-14.3-30.7-32s13.7-32 30.6-32h217l-48.2-50.4c-11.9-12.5-11.9-32.7 0-45.2 12-12.5 31.3-12.5 43.3 0z"/></svg><svg viewBox="0 0 32 32" xml:space="preserve" id="home" xmlns="http://www.w3.org/2000/svg"><path d="M30.854 16.548A2.216 2.216 0 0 1 28.764 18H28v11a1 1 0 0 1-1 1h-6v-7c0-2.757-2.243-5-5-5s-5 2.243-5 5v7H5a1 1 0 0 1-1-1V18h-.765a2.215 2.215 0 0 1-2.09-1.451 2.218 2.218 0 0 1 .62-2.47l11.679-11.06a3.718 3.718 0 0 1 5.112 0l11.707 11.086c.678.591.922 1.561.591 2.443z"/></svg></svg>